<?xml version="1.0" encoding="UTF-8" standalone="no"?>
<!DOCTYPE svg PUBLIC "-//W3C//DTD SVG 1.1//EN" "http://www.w3.org/Graphics/SVG/1.1/DTD/svg11.dtd">
<svg width="100%" height="100%" viewBox="0 0 800 800" version="1.1" xmlns="http://www.w3.org/2000/svg" xmlns:xlink="http://www.w3.org/1999/xlink" xml:space="preserve" xmlns:serif="http://www.serif.com/" style="fill-rule:evenodd;clip-rule:evenodd;stroke-linejoin:round;stroke-miterlimit:2;">
    <path d="M583.75,316.325L646.15,208.25C647.25,206.4 647.9,204.15 647.9,201.75C647.9,194.575 642.1,188.775 634.925,188.775C630.15,188.775 625.975,191.35 623.725,195.2L623.7,195.25L560.525,304.675C513.35,283 458.175,270.35 400.05,270.35C341.925,270.35 286.75,283 237.125,305.675L239.575,304.675L176.4,195.225C174.125,191.325 169.925,188.725 165.15,188.725C157.975,188.725 152.175,194.525 152.175,201.7C152.175,204.1 152.825,206.325 153.95,208.25L153.925,208.2L216.325,316.275C109.175,375.45 35.425,483.7 25.25,609.875L25.175,611.175L774.95,611.175C764.7,483.7 690.95,375.45 585.7,317.225L583.8,316.275L583.75,316.325ZM227.45,504.4C210.2,504.4 196.225,490.425 196.225,473.175C196.225,455.925 210.2,441.95 227.45,441.95C244.7,441.95 258.675,455.925 258.675,473.175C258.65,490.4 244.7,504.375 227.45,504.4ZM572.55,504.4C555.3,504.4 541.325,490.425 541.325,473.175C541.325,455.925 555.3,441.95 572.55,441.95C589.8,441.95 603.775,455.925 603.775,473.175C603.75,490.4 589.8,504.375 572.55,504.4Z" style="fill-rule:nonzero;"/>
</svg>
