<?xml version="1.0" encoding="utf-8"?>
<!-- Uploaded to: SVG Repo, www.svgrepo.com, Generator: SVG Repo Mixer Tools -->
<svg fill="#000000" width="800px" height="800px" viewBox="0 0 32 32" version="1.1" xmlns="http://www.w3.org/2000/svg">
<title>firefox</title>
<path d="M26.562 5.309c-0.896-0.918-1.916-1.71-3.034-2.349l-0.067-0.035c-2.087-1.186-4.584-1.886-7.245-1.886-0.825 0-1.634 0.067-2.422 0.196l0.086-0.012c-0.999 0.16-1.89 0.404-2.739 0.731l0.092-0.031c-1.246 0.453-2.316 1.113-3.223 1.948l0.007-0.006c0.918-0.532 1.981-0.958 3.107-1.224l0.080-0.016c0.866-0.213 1.861-0.334 2.884-0.334 0.627 0 1.242 0.046 1.844 0.134l-0.068-0.008c2.677 0.375 5.028 1.556 6.854 3.286l-0.006-0.005c0.612 0.58 1.148 1.231 1.598 1.942l0.024 0.041c0.841 1.321 1.34 2.93 1.34 4.657 0 1.568-0.412 3.039-1.133 4.312l0.023-0.044c-1.209 1.8-3.179 3.007-5.439 3.16l-0.022 0.001c-1.030-0.038-1.992-0.295-2.852-0.725l0.040 0.018c-1.7-0.775-2.86-2.459-2.86-4.414 0-1.358 0.56-2.586 1.462-3.465l0.001-0.001c-0.101-0.011-0.219-0.017-0.337-0.017-1.264 0-2.368 0.685-2.961 1.704l-0.009 0.016c-0.456 0.819-0.725 1.797-0.725 2.838 0 0.791 0.155 1.546 0.437 2.235l-0.014-0.040c-0.345-0.687-0.603-1.483-0.732-2.323l-0.006-0.045c-0.065-0.421-0.103-0.907-0.103-1.401 0-1.223 0.228-2.393 0.645-3.469l-0.022 0.066c0.437-1.149 1.028-2.14 1.76-3.008l-0.013 0.015c0.892-1.11 2.051-1.97 3.382-2.487l0.055-0.019c-0.799-0.6-1.808-0.96-2.901-0.96-0.044 0-0.087 0.001-0.131 0.002l0.006-0c-0.038-0.001-0.082-0.001-0.127-0.001-2.37 0-4.543 0.842-6.237 2.242l0.016-0.013c-0.999 0.832-1.825 1.833-2.443 2.963l-0.027 0.053c-0.327 0.595-0.622 1.29-0.849 2.015l-0.022 0.082c0.225-1.885 0.777-3.599 1.598-5.146l-0.038 0.079c-1.345 0.939-2.384 2.233-2.992 3.745l-0.020 0.056c-0.69 1.699-1.090 3.669-1.090 5.733 0 0.844 0.067 1.671 0.196 2.479l-0.012-0.089c1.25 7.137 7.4 12.492 14.801 12.492 8.293 0 15.015-6.722 15.015-15.015 0-4.164-1.695-7.932-4.433-10.652l-0.001-0.001z"></path>
</svg>