<?xml version="1.0" encoding="UTF-8" standalone="no"?>
<!DOCTYPE svg PUBLIC "-//W3C//DTD SVG 1.1//EN" "http://www.w3.org/Graphics/SVG/1.1/DTD/svg11.dtd">
<svg width="100%" height="100%" viewBox="0 0 48 48" version="1.1" xmlns="http://www.w3.org/2000/svg" xmlns:xlink="http://www.w3.org/1999/xlink" xml:space="preserve" xmlns:serif="http://www.serif.com/" style="fill-rule:evenodd;clip-rule:evenodd;stroke-linejoin:round;stroke-miterlimit:2;">
    <path d="M30.93,18.077C30.93,20.748 29.478,22.352 26.378,22.352L21.247,22.352L21.247,13.898L26.379,13.898C29.478,13.898 30.93,15.55 30.93,18.077ZM8,7L12.968,13.914L12.968,41.101L21.248,41.101L21.248,28.229L23.233,28.229L30.303,41.103L39.648,41.103L31.804,27.598C33.994,27.063 35.937,25.794 37.31,24.001C38.683,22.207 39.405,19.997 39.356,17.736C39.356,11.809 35.192,7 26.864,7L8,7Z" style="fill-rule:nonzero;"/>
</svg>
