<?xml version="1.0" encoding="UTF-8" standalone="no"?>
<!DOCTYPE svg PUBLIC "-//W3C//DTD SVG 1.1//EN" "http://www.w3.org/Graphics/SVG/1.1/DTD/svg11.dtd">
<svg width="100%" height="100%" viewBox="0 0 800 800" version="1.1" xmlns="http://www.w3.org/2000/svg" xmlns:xlink="http://www.w3.org/1999/xlink" xml:space="preserve" xmlns:serif="http://www.serif.com/" style="fill-rule:evenodd;clip-rule:evenodd;stroke-linejoin:round;stroke-miterlimit:2;">
    <g transform="matrix(1,0,0,1,-160,-291160)">
        <g id="Page-1">
            <g id="Dribbble-Light-Preview">
                <g id="icons">
                    <path id="windows---174-" serif:id="windows-[#174]" d="M525.835,291577C526.035,291657 526.276,291793 526.476,291899C671.038,291918 815.599,291938 959.92,291960C959.92,291834 960.08,291708 959.92,291589C815.238,291589 670.596,291577 525.835,291577M160,291577L160,291849C269.033,291864 378.065,291878 486.897,291894C487.098,291789 486.817,291684 486.817,291579C377.865,291579 268.952,291577 160,291577M160,291274L160,291544C269.033,291545 378.065,291543 487.098,291543C487.018,291438 487.018,291334 486.897,291229C377.784,291243 268.672,291257 160,291274M960,291539C815.519,291539 671.038,291542 526.476,291542C526.396,291436 526.396,291329 526.476,291223C670.757,291201 815.358,291180 959.92,291160C960,291286 959.92,291413 960,291539"/>
                </g>
            </g>
        </g>
    </g>
</svg>
